<mxfile host="app.diagrams.net" modified="2021-06-01T23:44:09.058Z" agent="5.0 (Windows NT 10.0; Win64; x64) AppleWebKit/537.36 (KHTML, like Gecko) Chrome/91.0.4472.77 Safari/537.36" etag="Ghfl7q56lnidwjbVR8ha" version="14.7.3" type="github">
  <diagram id="Ub_-cwKY4jWS1MkUW-Q0" name="Page-1">
    <mxGraphModel dx="1437" dy="2042" grid="1" gridSize="10" guides="1" tooltips="1" connect="1" arrows="1" fold="1" page="1" pageScale="1" pageWidth="827" pageHeight="1169" math="0" shadow="0">
      <root>
        <mxCell id="0" />
        <mxCell id="1" parent="0" />
        <mxCell id="lTdUcUjUeGvDN3bOYbYP-1" value="&lt;h1&gt;&lt;font face=&quot;Tahoma&quot;&gt;Object-type:Hotel&lt;/font&gt;&lt;/h1&gt;" style="text;html=1;strokeColor=none;fillColor=none;align=center;verticalAlign=middle;whiteSpace=wrap;rounded=0;sketch=1;" vertex="1" parent="1">
          <mxGeometry x="450" y="-90" width="240" height="50" as="geometry" />
        </mxCell>
        <mxCell id="lTdUcUjUeGvDN3bOYbYP-2" value="Making or cancelling a book&lt;br&gt;" style="text;html=1;strokeColor=none;fillColor=none;align=center;verticalAlign=middle;whiteSpace=wrap;rounded=0;sketch=1;" vertex="1" parent="1">
          <mxGeometry x="540" y="-70" width="260" height="60" as="geometry" />
        </mxCell>
        <mxCell id="lTdUcUjUeGvDN3bOYbYP-113" style="edgeStyle=orthogonalEdgeStyle;rounded=0;sketch=1;orthogonalLoop=1;jettySize=auto;html=1;exitX=0;exitY=0.5;exitDx=0;exitDy=0;entryX=1;entryY=0.5;entryDx=0;entryDy=0;" edge="1" parent="1" source="lTdUcUjUeGvDN3bOYbYP-55" target="lTdUcUjUeGvDN3bOYbYP-112">
          <mxGeometry relative="1" as="geometry" />
        </mxCell>
        <mxCell id="lTdUcUjUeGvDN3bOYbYP-114" style="edgeStyle=orthogonalEdgeStyle;rounded=0;sketch=1;orthogonalLoop=1;jettySize=auto;html=1;" edge="1" parent="1" source="lTdUcUjUeGvDN3bOYbYP-55" target="lTdUcUjUeGvDN3bOYbYP-109">
          <mxGeometry relative="1" as="geometry" />
        </mxCell>
        <mxCell id="lTdUcUjUeGvDN3bOYbYP-55" value="Book a room or cancel&lt;br&gt;booking:" style="rhombus;whiteSpace=wrap;html=1;sketch=1;" vertex="1" parent="1">
          <mxGeometry x="280" y="80" width="150" height="110" as="geometry" />
        </mxCell>
        <mxCell id="lTdUcUjUeGvDN3bOYbYP-63" value="" style="edgeStyle=orthogonalEdgeStyle;rounded=0;sketch=1;orthogonalLoop=1;jettySize=auto;html=1;" edge="1" parent="1" source="lTdUcUjUeGvDN3bOYbYP-61" target="lTdUcUjUeGvDN3bOYbYP-62">
          <mxGeometry relative="1" as="geometry" />
        </mxCell>
        <mxCell id="lTdUcUjUeGvDN3bOYbYP-61" value="CheckAvaibility()&amp;nbsp;" style="rounded=0;whiteSpace=wrap;html=1;sketch=1;" vertex="1" parent="1">
          <mxGeometry x="485" y="220" width="120" height="60" as="geometry" />
        </mxCell>
        <mxCell id="lTdUcUjUeGvDN3bOYbYP-101" value="" style="edgeStyle=orthogonalEdgeStyle;rounded=0;sketch=1;orthogonalLoop=1;jettySize=auto;html=1;" edge="1" parent="1" source="lTdUcUjUeGvDN3bOYbYP-62" target="lTdUcUjUeGvDN3bOYbYP-94">
          <mxGeometry relative="1" as="geometry" />
        </mxCell>
        <mxCell id="lTdUcUjUeGvDN3bOYbYP-62" value="Rooms - Bookings" style="whiteSpace=wrap;html=1;rounded=0;sketch=1;" vertex="1" parent="1">
          <mxGeometry x="485" y="320" width="120" height="30" as="geometry" />
        </mxCell>
        <mxCell id="lTdUcUjUeGvDN3bOYbYP-106" value="" style="edgeStyle=orthogonalEdgeStyle;rounded=0;sketch=1;orthogonalLoop=1;jettySize=auto;html=1;" edge="1" parent="1" source="lTdUcUjUeGvDN3bOYbYP-72" target="lTdUcUjUeGvDN3bOYbYP-80">
          <mxGeometry relative="1" as="geometry" />
        </mxCell>
        <mxCell id="lTdUcUjUeGvDN3bOYbYP-72" value="We don&#39;t have any more rooms available!" style="whiteSpace=wrap;html=1;rounded=0;sketch=1;" vertex="1" parent="1">
          <mxGeometry x="705" y="480" width="130" height="40" as="geometry" />
        </mxCell>
        <mxCell id="lTdUcUjUeGvDN3bOYbYP-80" value="end" style="rounded=1;whiteSpace=wrap;html=1;sketch=1;" vertex="1" parent="1">
          <mxGeometry x="720" y="570" width="100" height="30" as="geometry" />
        </mxCell>
        <mxCell id="lTdUcUjUeGvDN3bOYbYP-108" value="" style="edgeStyle=orthogonalEdgeStyle;rounded=0;sketch=1;orthogonalLoop=1;jettySize=auto;html=1;" edge="1" parent="1" source="lTdUcUjUeGvDN3bOYbYP-84" target="lTdUcUjUeGvDN3bOYbYP-107">
          <mxGeometry relative="1" as="geometry" />
        </mxCell>
        <mxCell id="lTdUcUjUeGvDN3bOYbYP-84" value="makeBooking()" style="shape=parallelogram;perimeter=parallelogramPerimeter;whiteSpace=wrap;html=1;fixedSize=1;rounded=0;sketch=1;" vertex="1" parent="1">
          <mxGeometry x="477.5" y="500" width="135" height="30" as="geometry" />
        </mxCell>
        <mxCell id="lTdUcUjUeGvDN3bOYbYP-105" style="edgeStyle=orthogonalEdgeStyle;rounded=0;sketch=1;orthogonalLoop=1;jettySize=auto;html=1;entryX=0.5;entryY=0;entryDx=0;entryDy=0;" edge="1" parent="1" source="lTdUcUjUeGvDN3bOYbYP-92" target="lTdUcUjUeGvDN3bOYbYP-72">
          <mxGeometry relative="1" as="geometry" />
        </mxCell>
        <mxCell id="lTdUcUjUeGvDN3bOYbYP-92" value="else" style="whiteSpace=wrap;html=1;rounded=0;sketch=1;" vertex="1" parent="1">
          <mxGeometry x="735" y="411.25" width="70" height="27.5" as="geometry" />
        </mxCell>
        <mxCell id="lTdUcUjUeGvDN3bOYbYP-96" value="" style="edgeStyle=orthogonalEdgeStyle;rounded=0;sketch=1;orthogonalLoop=1;jettySize=auto;html=1;" edge="1" parent="1" source="lTdUcUjUeGvDN3bOYbYP-94" target="lTdUcUjUeGvDN3bOYbYP-84">
          <mxGeometry relative="1" as="geometry" />
        </mxCell>
        <mxCell id="lTdUcUjUeGvDN3bOYbYP-104" style="edgeStyle=orthogonalEdgeStyle;rounded=0;sketch=1;orthogonalLoop=1;jettySize=auto;html=1;entryX=0;entryY=0.5;entryDx=0;entryDy=0;" edge="1" parent="1" source="lTdUcUjUeGvDN3bOYbYP-94" target="lTdUcUjUeGvDN3bOYbYP-92">
          <mxGeometry relative="1" as="geometry" />
        </mxCell>
        <mxCell id="lTdUcUjUeGvDN3bOYbYP-94" value="if Rooms &amp;gt; bookings" style="rhombus;whiteSpace=wrap;html=1;sketch=1;" vertex="1" parent="1">
          <mxGeometry x="480" y="390" width="130" height="70" as="geometry" />
        </mxCell>
        <mxCell id="lTdUcUjUeGvDN3bOYbYP-107" value="end" style="rounded=1;whiteSpace=wrap;html=1;sketch=1;" vertex="1" parent="1">
          <mxGeometry x="495" y="580" width="100" height="30" as="geometry" />
        </mxCell>
        <mxCell id="lTdUcUjUeGvDN3bOYbYP-110" value="" style="edgeStyle=orthogonalEdgeStyle;rounded=0;sketch=1;orthogonalLoop=1;jettySize=auto;html=1;" edge="1" parent="1" source="lTdUcUjUeGvDN3bOYbYP-109" target="lTdUcUjUeGvDN3bOYbYP-61">
          <mxGeometry relative="1" as="geometry" />
        </mxCell>
        <mxCell id="lTdUcUjUeGvDN3bOYbYP-109" value="Give me a room!" style="ellipse;whiteSpace=wrap;html=1;sketch=1;" vertex="1" parent="1">
          <mxGeometry x="485" y="95" width="120" height="80" as="geometry" />
        </mxCell>
        <mxCell id="lTdUcUjUeGvDN3bOYbYP-116" value="" style="edgeStyle=orthogonalEdgeStyle;rounded=0;sketch=1;orthogonalLoop=1;jettySize=auto;html=1;" edge="1" parent="1" source="lTdUcUjUeGvDN3bOYbYP-112" target="lTdUcUjUeGvDN3bOYbYP-115">
          <mxGeometry relative="1" as="geometry" />
        </mxCell>
        <mxCell id="lTdUcUjUeGvDN3bOYbYP-112" value="Cancel" style="ellipse;whiteSpace=wrap;html=1;sketch=1;" vertex="1" parent="1">
          <mxGeometry x="110" y="95" width="120" height="80" as="geometry" />
        </mxCell>
        <mxCell id="lTdUcUjUeGvDN3bOYbYP-122" value="" style="edgeStyle=orthogonalEdgeStyle;rounded=0;sketch=1;orthogonalLoop=1;jettySize=auto;html=1;" edge="1" parent="1" source="lTdUcUjUeGvDN3bOYbYP-115" target="lTdUcUjUeGvDN3bOYbYP-121">
          <mxGeometry relative="1" as="geometry" />
        </mxCell>
        <mxCell id="lTdUcUjUeGvDN3bOYbYP-130" style="edgeStyle=orthogonalEdgeStyle;rounded=0;sketch=1;orthogonalLoop=1;jettySize=auto;html=1;entryX=0.5;entryY=0;entryDx=0;entryDy=0;" edge="1" parent="1" source="lTdUcUjUeGvDN3bOYbYP-115" target="lTdUcUjUeGvDN3bOYbYP-129">
          <mxGeometry relative="1" as="geometry" />
        </mxCell>
        <mxCell id="lTdUcUjUeGvDN3bOYbYP-115" value="Are you sure?" style="rhombus;whiteSpace=wrap;html=1;sketch=1;" vertex="1" parent="1">
          <mxGeometry x="105" y="200" width="130" height="80" as="geometry" />
        </mxCell>
        <mxCell id="lTdUcUjUeGvDN3bOYbYP-126" style="edgeStyle=orthogonalEdgeStyle;rounded=0;sketch=1;orthogonalLoop=1;jettySize=auto;html=1;entryX=0;entryY=0.5;entryDx=0;entryDy=0;" edge="1" parent="1" source="lTdUcUjUeGvDN3bOYbYP-121" target="lTdUcUjUeGvDN3bOYbYP-124">
          <mxGeometry relative="1" as="geometry">
            <Array as="points">
              <mxPoint x="30" />
            </Array>
          </mxGeometry>
        </mxCell>
        <mxCell id="lTdUcUjUeGvDN3bOYbYP-121" value="no" style="ellipse;whiteSpace=wrap;html=1;sketch=1;" vertex="1" parent="1">
          <mxGeometry x="10" y="220" width="40" height="40" as="geometry" />
        </mxCell>
        <mxCell id="lTdUcUjUeGvDN3bOYbYP-125" value="" style="edgeStyle=orthogonalEdgeStyle;rounded=0;sketch=1;orthogonalLoop=1;jettySize=auto;html=1;" edge="1" parent="1" source="lTdUcUjUeGvDN3bOYbYP-124" target="lTdUcUjUeGvDN3bOYbYP-55">
          <mxGeometry relative="1" as="geometry" />
        </mxCell>
        <mxCell id="lTdUcUjUeGvDN3bOYbYP-124" value="Start" style="rounded=1;whiteSpace=wrap;html=1;sketch=1;" vertex="1" parent="1">
          <mxGeometry x="295" y="-30" width="120" height="60" as="geometry" />
        </mxCell>
        <mxCell id="lTdUcUjUeGvDN3bOYbYP-135" value="" style="edgeStyle=orthogonalEdgeStyle;rounded=0;sketch=1;orthogonalLoop=1;jettySize=auto;html=1;" edge="1" parent="1" source="lTdUcUjUeGvDN3bOYbYP-129" target="lTdUcUjUeGvDN3bOYbYP-133">
          <mxGeometry relative="1" as="geometry" />
        </mxCell>
        <mxCell id="lTdUcUjUeGvDN3bOYbYP-129" value="yes" style="ellipse;whiteSpace=wrap;html=1;sketch=1;" vertex="1" parent="1">
          <mxGeometry x="150" y="320" width="40" height="40" as="geometry" />
        </mxCell>
        <mxCell id="lTdUcUjUeGvDN3bOYbYP-138" style="edgeStyle=orthogonalEdgeStyle;rounded=0;sketch=1;orthogonalLoop=1;jettySize=auto;html=1;entryX=0.5;entryY=0;entryDx=0;entryDy=0;" edge="1" parent="1" source="lTdUcUjUeGvDN3bOYbYP-133" target="lTdUcUjUeGvDN3bOYbYP-137">
          <mxGeometry relative="1" as="geometry" />
        </mxCell>
        <mxCell id="lTdUcUjUeGvDN3bOYbYP-133" value="cancelBooking()" style="shape=parallelogram;perimeter=parallelogramPerimeter;whiteSpace=wrap;html=1;fixedSize=1;rounded=0;sketch=1;" vertex="1" parent="1">
          <mxGeometry x="102.5" y="400" width="135" height="30" as="geometry" />
        </mxCell>
        <mxCell id="lTdUcUjUeGvDN3bOYbYP-137" value="end" style="rounded=1;whiteSpace=wrap;html=1;sketch=1;" vertex="1" parent="1">
          <mxGeometry x="120" y="470" width="100" height="30" as="geometry" />
        </mxCell>
      </root>
    </mxGraphModel>
  </diagram>
</mxfile>
